<?xml version="1.0" standalone="no"?>
<!DOCTYPE svg PUBLIC "-//W3C//DTD SVG 20010904//EN"
 "http://www.w3.org/TR/2001/REC-SVG-20010904/DTD/svg10.dtd">
<svg version="1.0" xmlns="http://www.w3.org/2000/svg"
 width="1024.000000pt" height="1024.000000pt" viewBox="0 0 1024.000000 1024.000000"
 preserveAspectRatio="xMidYMid meet">
<metadata>
Created by potrace 1.14, written by Peter Selinger 2001-2017
</metadata>
<g transform="translate(0.000000,1024.000000) scale(0.100000,-0.100000)"
fill="#9e9e9e" stroke="none">
<path d="M1679 10227 c-80 -11 -188 -68 -253 -133 -61 -62 -95 -116 -122 -196
-18 -51 -18 -234 -18 -4778 l0 -4725 23 -64 c57 -164 198 -287 361 -317 25 -4
1573 -8 3440 -9 2635 -1 3410 2 3461 11 190 35 347 196 377 385 4 30 8 1535 7
3344 l0 3290 -1365 1 c-751 1 -1388 4 -1416 7 -206 26 -376 192 -408 397 -3
19 -6 656 -6 1415 l-1 1380 -2013 0 c-1107 0 -2037 -3 -2067 -8z m5556 -5111
c158 -17 329 -125 390 -247 52 -102 51 -76 49 -1359 0 -657 -4 -1206 -7 -1219
-28 -108 -57 -160 -126 -223 -125 -116 -312 -169 -465 -134 -110 26 -141 53
-742 655 l-574 574 0 -64 c0 -35 -1 -221 -1 -412 0 -375 -4 -408 -55 -509 -34
-67 -135 -168 -202 -202 -107 -54 -71 -53 -1362 -51 -1127 1 -1198 2 -1245 19
-87 32 -124 55 -188 119 -61 60 -112 145 -133 222 -4 17 -9 563 -10 1215 -1
1295 -3 1258 57 1371 38 71 135 166 205 199 107 51 75 50 1349 50 1035 -1
1196 -3 1234 -16 168 -58 270 -157 332 -324 9 -26 14 -144 16 -459 2 -233 5
-426 7 -428 2 -2 264 256 582 574 561 560 614 608 689 630 41 12 132 29 140
27 6 -1 33 -5 60 -8z"/>
<path d="M6399 10206 c-3 -197 0 -2517 4 -2523 3 -4 578 -8 1279 -7 l1273 1 0
84 c1 46 -5 111 -12 144 -31 138 14 89 -1091 1196 -687 688 -1041 1036 -1077
1058 -94 57 -149 72 -267 75 l-108 2 -1 -30z"/>
</g>
</svg>
